HIERARCHY
ROOT pelvis
{
	OFFSET 0.000000 0.000000 0.000000
	CHANNELS 6 Xposition Yposition Zposition Zrotation Xrotation Yrotation
	JOINT lfemur
	{
		OFFSET 11.446000 0.000000 0.000000
		CHANNELS 3 Zrotation Xrotation Yrotation
		JOINT ltibia
		{
			OFFSET 0.000000 -42.030400 0.000000
			CHANNELS 3 Zrotation Xrotation Yrotation
			JOINT lfoot
			{
				OFFSET 0.000000 -39.930200 0.000000
				CHANNELS 3 Zrotation Xrotation Yrotation
				JOINT ltoes
				{
					OFFSET 0.000000 0.000000 11.775800
					CHANNELS 3 Zrotation Xrotation Yrotation
					End Site
					{
					    OFFSET 0.000000 0.000000 5.000000
					}
				}
			}
		}
	}
	JOINT rfemur
	{
		OFFSET -11.446000 0.000000 0.000000
		CHANNELS 3 Zrotation Xrotation Yrotation
		JOINT rtibia
		{
			OFFSET 0.000000 -42.030400 0.000000
			CHANNELS 3 Zrotation Xrotation Yrotation
			JOINT rfoot
			{
				OFFSET 0.000000 -39.930200 0.000000
				CHANNELS 3 Zrotation Xrotation Yrotation
				JOINT rtoes
				{
					OFFSET 0.000000 0.000000 11.775800
					CHANNELS 3 Zrotation Xrotation Yrotation
					End Site
					{
					    OFFSET 0.000000 0.000000 5.000000
					}
				}
			}
		}
	}
	JOINT thorax
	{
		OFFSET 0.000000 11.255600 -5.000000
		CHANNELS 3 Zrotation Xrotation Yrotation
		JOINT head
		{
			OFFSET 0.000000 43.799300 0.000000
			CHANNELS 3 Zrotation Xrotation Yrotation
			End Site
			{
			    OFFSET 0.000000 5.000000 0.000000
			}
		}
		JOINT lclavicle
		{
			OFFSET 0.000000 39.863000 0.000000
			CHANNELS 3 Zrotation Xrotation Yrotation
			JOINT lhumerus
			{
				OFFSET 17.380600 4.958300 0.000000
				CHANNELS 3 Zrotation Xrotation Yrotation
				JOINT lradius
				{
					OFFSET 0.000000 -27.561300 0.000000
					CHANNELS 3 Zrotation Xrotation Yrotation
					JOINT lhand
					{
						OFFSET 0.000000 -26.933000 0.000000
						CHANNELS 3 Zrotation Xrotation Yrotation
						End Site
						{
						    OFFSET 0.000000 -5.000000 0.000000
						}
					}
				}
			}
		}
		JOINT rclavicle
		{
			OFFSET 0.000000 39.863000 0.000000
			CHANNELS 3 Zrotation Xrotation Yrotation
			JOINT rhumerus
			{
				OFFSET -17.380600 4.958300 0.000000
				CHANNELS 3 Zrotation Xrotation Yrotation
				JOINT rradius
				{
					OFFSET 0.000000 -27.561300 0.000000
					CHANNELS 3 Zrotation Xrotation Yrotation
					JOINT rhand
					{
						OFFSET 0.000000 -26.933000 0.000000
						CHANNELS 3 Zrotation Xrotation Yrotation
						End Site
						{
						    OFFSET 0.000000 -5.000000 0.000000
						}
					}
				}
			}
		}
	}
}
MOTION
Frames:	22
Frame Time:	0.0333333
-76.8382 81.8397 -173.307 -4.68531 6.0152 -5.03509 1.78962 -15.5252 -1.11359 40.6303 88.6061 -40.2331 1.83878 6.48928 -2.04036 -1.66854e-015 -5 -8.97948e-016 6.66707 -20.5423 -4.56042 -0.470888 48.1935 -0.106134 -4.17874 -15.3886 -15.0932 -0 -5 -0 5.24954 12.184 -1.43946 3.67556 -25.6392 1.75691 7.95139e-016 -6.36111e-015 1.59028e-015 9.05806 6.43261 -30.6517 103.658 -50.8441 78.5372 -0.658668 3.18947 23.3484 7.95139e-016 -6.36111e-015 1.59028e-015 -15.651 -11.9441 49.7161 -118.142 -46.3814 -90.7207 0.0159241 0.512001 -3.63481 
-76.7664 83.3737 -164.869 -6.65456 6.6527 -4.75539 3.6259 -23.8549 0.666794 14.7321 86.5778 -14.4727 1.3736 0.677179 -0.610646 -8.29921e-016 -5 -3.99088e-016 8.34935 -13.1809 -3.55084 -0.363719 43.8907 -0.47626 -2.86178 -12.5788 -14.3545 -1.31201e-015 -5 3.1927e-015 8.05585 8.15529 0.128687 2.51733 -21.7069 1.70451 0 0 -0 6.94102 12.0041 -30.8401 105.748 -50.3693 80.3239 -0.757332 3.40875 25.0651 0 0 -0 -17.1079 -11.3944 53.905 -120.987 -45.1352 -93.0433 0.0261276 0.652262 -4.63575 
-76.3519 85.7296 -155.47 -8.23786 6.37452 -3.94362 3.56433 -29.1783 1.01972 3.66213 78.3502 -3.5143 1.38696 0.223464 -0.931905 -1.59028e-015 -5 -0 8.58253 -4.91905 -2.68098 -0.264225 38.5951 -0.468849 -0.346301 -4.12197 -9.9385 4.17394e-016 -5 4.78906e-015 8.7681 8.76853 5.12681 2.94283 -20.7876 0.512348 -6.21202e-017 -1.59028e-015 2.48481e-017 6.61362 13.6161 -33.5931 106.709 -50.1338 81.1426 -0.708877 3.3033 24.2363 -6.21202e-017 -1.59028e-015 2.48481e-017 -18.12 -11.0281 53.9749 -123.606 -43.8587 -95.1535 0.0232409 0.615864 -4.37666 
-75.6984 87.9485 -145.808 -9.05441 6.02805 -0.544315 1.11134 -32.3783 -1.09123 1.29447 65.1987 -1.29855 1.33902 -1.96046 -1.29112 -2.2115e-015 -5 1.99544e-015 7.755 2.31083 -3.93003 -0.18144 33.071 -0.742782 1.39687 8.47906 -5.97516 1.65984e-015 -5 7.98176e-016 8.78224 9.45019 7.85627 1.63406 -22.7928 -3.85286 -8.82781e-032 3.18055e-015 1.59028e-015 7.22911 14.5916 -36.0448 107.565 -49.9143 81.8708 -0.659358 3.19128 23.362 -8.82781e-032 3.18055e-015 1.59028e-015 -18.5868 -10.6665 52.4892 -123.771 -43.7739 -95.2852 0.00565851 0.310092 -2.19755 
-75.001 89.6069 -135.667 -9.4004 6.12564 2.59854 -1.62137 -33.2446 -2.13775 0.503482 49.2326 -0.562481 1.36326 1.3227 -0.308353 -3.34921e-015 -5 -2.24487e-016 6.97706 9.54478 -4.2865 -0.102495 25.421 -0.720374 2.31875 25.9497 -6.00014 1.59028e-015 -5 -0 8.29728 7.25502 8.44731 0.192699 -23.7232 -10.1212 3.97569e-016 -3.18055e-015 -1.59028e-015 7.99916 17.9124 -36.6254 108.936 -49.5435 83.0337 -0.661712 3.1968 23.4044 3.97569e-016 -3.18055e-015 -1.59028e-015 -18.4753 -8.65994 52.7166 -123.376 -43.9762 -94.9688 0.00479736 0.285725 -2.02372 
-74.7375 90.5102 -125.731 -11.0487 5.76401 3.79793 -1.47315 -32.3629 -0.951405 0.202315 34.2843 -0.270602 1.03386 5.31819 4.05116 -2.05741e-015 -5 -7.98176e-016 8.14276 15.9874 -0.463552 -0.0832244 20.8093 -0.163324 1.41003 34.0954 -4.66569 1.54045e-016 -5 1.19726e-015 8.98353 5.8163 9.36207 0.892822 -22.372 -11.2163 0 3.18055e-015 -0 9.27648 21.144 -36.1854 111.943 -48.6439 85.5694 -0.699495 3.28243 24.0727 0 3.18055e-015 -0 -18.1772 -6.06003 54.9231 -123.611 -43.856 -95.1578 0.00355094 0.253073 -1.79135 
-74.0943 90.7439 -116.366 -12.7258 5.72595 5.29289 -1.67618 -32.6715 1.82135 0.0923926 23.9223 -0.0635724 0.361091 12.4506 6.36407 6.75832e-016 -5 3.1927e-015 8.99338 17.5913 1.52323 -0.122143 25.6421 -0.164818 0.93074 31.6562 -4.34451 -7.95139e-016 -5 -0 10.4272 4.61482 8.79176 0.560563 -21.4455 -11.1331 0 1.59028e-015 -0 9.87897 22.9026 -35.0796 114.999 -47.6001 88.123 -0.692677 3.26711 23.9529 0 1.59028e-015 -0 -18.4904 -4.53116 55.5919 -123.275 -44.0274 -94.8881 0.0037749 0.239362 -1.6939 
-73.4335 89.7283 -106.996 -13.8366 4.53466 6.98447 -2.49992 -30.8366 4.19803 0.0593966 18.9641 0.058305 0.142918 17.0185 6.23302 1.00982e-014 -5 6.38541e-015 9.4165 16.8166 1.37297 -0.271502 37.2561 -0.0645729 1.64265 27.9213 -6.2625 -1.57723e-015 -5 1.49658e-016 10.9842 4.83385 7.21016 1.48996 -20.1163 -9.74829 -7.95139e-016 3.18055e-015 3.18055e-015 11.1009 23.152 -33.8493 117.29 -46.725 90.0203 -0.672822 3.22203 23.6007 -7.95139e-016 3.18055e-015 3.18055e-015 -18.0755 -3.20219 55.3259 -122.253 -44.5346 -94.0665 0.00320697 0.210301 -1.48635 
-72.3001 87.6357 -97.5229 -12.2114 1.84482 10.4508 -6.47502 -24.9847 7.61446 0.0557441 16.9036 -0.0431805 3.04897 20.2844 0.437409 2.94194e-015 -5 6.38541e-015 7.1684 16.0826 -2.30122 -0.617831 51.415 0.188791 2.08502 24.7403 -7.60084 -1.39028e-015 -5 2.29476e-015 8.38667 6.72733 3.86797 2.29814 -19.4818 -9.45693 -7.95139e-016 -1.59028e-015 1.59028e-015 13.5631 20.9981 -32.9088 117.929 -46.4663 90.5461 -0.726538 3.34214 24.5405 -7.95139e-016 -1.59028e-015 1.59028e-015 -16.6398 -0.740674 53.0197 -120.877 -45.1858 -92.9542 0.000393582 0.118686 -0.833886 
-71.6524 84.8591 -88.9937 -13.1913 0.169045 11.8557 -7.23142 -23.3131 8.43225 0.148079 28.2661 -0.401471 9.76998 4.28884 5.98226 -2.10715e-015 -5 3.1927e-015 5.28854 11.3102 -5.07517 -1.56481 67.1176 1.03219 1.6734 19.9801 -7.48226 -1.32941e-015 -5 2.99316e-015 9.09004 8.23251 2.88335 2.20539 -19.9773 -8.71951 -3.97569e-016 3.18055e-015 -3.18055e-015 15.4304 16.0197 -32.3513 117.826 -46.5089 90.461 -0.693038 3.26793 23.959 -3.97569e-016 3.18055e-015 -3.18055e-015 -16.1523 1.58564 49.7866 -119.232 -45.92 -91.6143 0.00477803 0.210523 -1.48724 
-69.6335 82.1723 -81.163 -7.93356 0.574948 15.1043 -13.8665 -18.1774 5.77415 0.191519 31.401 0.118408 12.7638 -5.33046 8.87203 1.31201e-015 -5 -3.1927e-015 -4.43797 4.95473 -8.45587 -6.29063 82.3302 5.68622 0.70512 15.2364 -5.55747 1.67723e-015 -5 9.9772e-016 1.42309 9.44632 1.00789 4.9306 -19.9278 -7.32446 7.95139e-016 0 -3.18055e-015 19.3942 8.11616 -32.0819 116.332 -47.1022 89.2281 -0.782351 3.46162 25.4818 7.95139e-016 0 -3.18055e-015 -12.4899 4.17977 44.9455 -115.216 -47.5229 -88.3029 -0.000291048 0.0357592 -0.243698 
-68.0367 80.4302 -74.0541 -5.70138 2.1527 17.1786 -16.0803 -14.6139 7.48951 0.218026 33.2175 0.754007 14.8884 -12.6812 8.56482 2.78262e-016 -5 3.1927e-015 -10.2046 -5.97965 -9.26586 -166.12 85.79 165.379 0.239276 12.2254 -4.55801 -8.6957e-017 -5 -9.9772e-016 -2.42711 9.05315 0.302642 6.54883 -19.341 -5.64414 0 1.59028e-015 -0 21.5292 0.394684 -32.204 113.805 -48.0255 87.1276 -0.737876 3.36694 24.7356 0 1.59028e-015 -0 -9.72017 8.10185 39.3675 -113.736 -48.0493 -87.0707 0.000377281 0.106924 -0.750412 
-65.8552 80.0074 -67.3115 -4.90689 3.63131 19.2956 -17.0439 -10.7986 6.80507 0.230641 34.3092 0.946699 14.304 -15.8649 6.5402 1.0734e-015 -5 3.1927e-015 -12.9766 -18.1445 -8.71467 -173.335 80.7232 172.499 -0.186249 11.2217 -3.53478 -1.45549e-015 -5 1.54647e-015 -3.31582 9.22606 -1.44936 5.82019 -20.734 -4.13983 -7.95139e-016 -1.59028e-015 -3.18055e-015 20.537 -4.99351 -31.6469 114.369 -47.8283 87.5981 -0.727181 3.34362 24.5526 -7.95139e-016 -1.59028e-015 -3.18055e-015 -8.50051 11.0431 36.3504 -115.763 -47.3187 -88.7572 0.0153007 0.503157 -3.57142 
-63.1772 80.8778 -60.3718 -4.7256 4.85655 21.6081 -17.5251 -6.24273 4.80121 0.225436 34.1242 0.634254 13.6636 -13.4057 4.49021 -0 -5 -0 -13.0132 -28.4288 -7.26343 -170.629 83.7127 169.883 -0.2285 8.00084 -4.51301 -1.86854e-015 -5 -3.1927e-015 -3.38619 8.92294 -3.5139 4.75067 -21.883 -2.67956 -2.38542e-015 -1.59028e-015 -0 19.3987 -7.60697 -32.7466 116.342 -47.0993 89.2364 -0.819706 3.5388 26.0948 -2.38542e-015 -1.59028e-015 -0 -8.36696 13.5303 35.4936 -118.822 -46.0941 -91.279 0.074511 1.09652 -7.81664 
-59.8865 83.054 -52.8237 -4.78651 6.01443 21.5143 -16.9867 -2.08728 5.71999 0.20233 32.8729 -0.224542 11.4833 -5.89127 0.678041 -1.86854e-015 -5 -3.1927e-015 -10.0085 -36.6239 -1.05384 -11.9307 85.822 11.46 -0.496547 8.60084 -3.74521 6.63937e-015 -5 3.1927e-015 -3.34125 8.18398 -3.34567 4.5967 -22.1515 -0.63264 -1.59028e-015 0 -6.36111e-015 18.2136 -8.26548 -34.3492 116.951 -46.8622 89.7397 -0.790177 3.47794 25.6118 -1.59028e-015 0 -6.36111e-015 -8.83281 14.8842 35.3686 -119.5 -45.8018 -91.8336 0.0527969 0.92457 -6.58296 
-56.0412 85.3467 -44.6512 -5.84808 6.52692 23.2067 -14.5727 3.3714 4.14324 0.153449 29.1959 -1.59305 14.3674 4.48082 -4.69663 -1.45115e-015 -5 1.59635e-015 -6.30137 -38.4582 3.10851 -1.64949 68.5905 1.51714 -0.0391287 8.69924 -6.07298 -1.59028e-015 -5 -0 -1.72844 6.87468 -4.26371 4.55726 -21.2274 -0.471775 7.95139e-016 -1.59028e-015 -0 17.2527 -6.73653 -37.2992 116.716 -46.9543 89.5458 -0.750758 3.39459 24.9535 7.95139e-016 -1.59028e-015 -0 -9.45044 16.204 35.6433 -119.177 -45.942 -91.5694 0.0391562 0.797309 -5.67202 
-51.6357 87.2807 -36.2604 -6.86417 7.12196 25.5486 -11.9168 6.73828 -0.541822 0.123481 28.3242 -3.48497 16.1315 18.1248 -7.37314 4.77083e-015 -5 -0 -5.11488 -37.326 3.4021 -0.473776 47.6546 0.544613 0.393469 9.35782 -8.75793 -1.86854e-015 -5 -3.1927e-015 -0.347842 5.14597 -4.9452 3.66665 -20.4443 -1.40371 -1.59028e-015 -1.59028e-015 -0 17.4375 -4.10056 -40.9891 116.279 -47.1236 89.1842 -0.781223 3.45921 25.4634 -1.59028e-015 -1.59028e-015 -0 -9.66601 17.4661 34.8433 -118.999 -46.0182 -91.4239 0.0341453 0.745317 -5.3007 
-47.237 88.008 -28.3529 -7.36289 8.02857 27.1293 -10.4615 5.81208 -5.50448 0.154301 31.8215 -0.866902 12.2386 28.6736 -15.012 -6.81329e-015 -5 -5.18814e-015 -5.22904 -35.6676 0.45744 -0.13938 28.3706 0.248719 -0.566021 10.9574 -3.41504 -1.86854e-015 -5 -3.1927e-015 0.381066 4.24019 -4.70777 4.4046 -19.9806 -2.90011 7.95139e-016 0 -3.18055e-015 17.9462 -2.27327 -43.3922 114.413 -47.8131 87.6343 -0.70299 3.29019 24.1341 7.95139e-016 0 -3.18055e-015 -9.98354 16.8848 33.8505 -118.661 -46.162 -91.1472 0.0502415 0.827508 -5.88792 
-43.079 87.7599 -21.0102 -6.33408 8.20104 26.5496 -11.143 6.21215 -7.08057 0.244633 37.435 0.391383 8.96016 28.9157 -13.0401 -1.03375e-015 -5 6.38541e-015 -3.81479 -34.1545 -1.36245 -0.0666518 18.6141 0.139619 -2.03614 13.4502 3.97977 -5.16876e-016 -5 3.1927e-015 -0.712118 5.49719 -2.49756 4.23205 -21.8227 -3.89827 -7.95139e-016 3.18055e-015 3.18055e-015 18.3699 -0.708287 -44.0164 111.87 -48.6691 85.5071 -0.679731 3.23792 23.7262 -7.95139e-016 3.18055e-015 3.18055e-015 -10.0372 14.784 33.0261 -119.13 -45.9623 -91.5308 0.0501361 0.830032 -5.90635 
-39.2492 86.9481 -13.3529 -5.13365 5.61902 26.9671 -10.1047 5.70086 -5.98946 0.507869 49.3449 0.226237 8.93244 24.3242 -14.1467 -1.1381e-015 -5 5.18814e-015 -0.37321 -31.7848 -0.133521 -0.097521 23.1534 0.17079 -2.26142 13.4486 5.00612 7.95139e-016 -5 -0 -0.95162 9.66089 -1.04524 3.22036 -23.4403 -3.10423 7.95139e-016 -1.59028e-015 6.36111e-015 18.5927 0.58261 -42.8897 107.622 -49.9007 81.9182 -0.666632 3.20799 23.4932 7.95139e-016 -1.59028e-015 6.36111e-015 -10.2975 11.1066 32.644 -119.49 -45.8064 -91.8253 0.0366097 0.77121 -5.48583 
-35.0583 85.3192 -6.10323 -2.54721 4.58959 28.5842 -10.5438 2.97142 -5.03014 1.08556 62.2254 -0.304166 8.22002 22.4668 -13.3424 3.82611e-016 -5 4.38997e-015 -1.22108 -30.9937 -1.5672 -0.251546 36.9423 0.347423 -1.49083 5.31087 2.69283 5.16876e-016 -5 -3.1927e-015 -3.2066 11.4361 -0.537445 3.06587 -22.5884 -3.7293 1.59028e-015 1.59028e-015 -6.36111e-015 18.8639 2.62388 -40.9468 101.986 -51.1877 77.1025 -0.597319 3.04381 22.2212 1.59028e-015 1.59028e-015 -6.36111e-015 -11.3965 7.07279 32.8873 -118.454 -46.2501 -90.9772 0.0459308 0.862879 -6.14115 
-32.0217 83.3222 1.15739 -4.25466 2.02949 31.1028 -5.12422 -2.79746 -4.81623 3.27789 77.1464 -2.64544 5.67262 14.2582 -10.9122 -3.65012e-015 -5 -5.38769e-015 3.45599 -27.8181 1.53519 -0.421585 45.784 0.51756 -1.30235 -5.33927 -4.09385 -1.35166e-015 -5 -6.38541e-015 0.37219 13.1967 -0.344071 2.28533 -21.1254 -4.34468 -7.95139e-016 1.59028e-015 -0 17.3986 2.39324 -38.5974 94.8149 -52.3164 70.9115 -0.496046 2.78337 20.2296 -7.95139e-016 1.59028e-015 -0 -13.6073 1.56429 32.372 -118.015 -46.4328 -90.6167 0.07268 1.08325 -7.72159 
